<svg width="18" height="18" viewBox="0 0 18 18" fill="none" xmlns="http://www.w3.org/2000/svg">
<path d="M16.6133 11.2627C16.3657 11.2627 16.165 11.4633 16.165 11.711V15.6913C16.1641 16.4338 15.5626 17.0355 14.8201 17.0362H2.24147C1.49896 17.0355 0.897483 16.4338 0.896586 15.6913V4.00926C0.897483 3.26693 1.499 2.66527 2.24147 2.66438H6.22186C6.46945 2.66438 6.67015 2.46368 6.67015 2.21608C6.67015 1.96863 6.46945 1.76779 6.22186 1.76779H2.24147C1.00409 1.76918 0.00138971 2.77188 0 4.00926V15.6915C0.00138971 16.9288 1.00409 17.9315 2.24147 17.933H14.8201C16.0575 17.9315 17.0602 16.9288 17.0616 15.6915V11.711C17.0616 11.4633 16.8609 11.2627 16.6133 11.2627Z" fill="white" stroke="white" stroke-width="0.2"/>
<path d="M16.8841 0.61428C16.0962 -0.173551 14.8189 -0.173551 14.0311 0.61428L6.03321 8.61214C5.97846 8.66688 5.93883 8.73487 5.91817 8.80948L4.86643 12.6065C4.84521 12.683 4.84466 12.7637 4.86484 12.8404C4.88502 12.9172 4.92521 12.9872 4.98131 13.0433C5.0374 13.0994 5.10739 13.1396 5.18412 13.1598C5.26084 13.18 5.34156 13.1795 5.41801 13.1583L9.21506 12.1064C9.28967 12.0857 9.35766 12.0461 9.4124 11.9913L17.41 3.99333C18.1967 3.20492 18.1967 1.92872 17.41 1.14035L16.8841 0.61428ZM7.00999 8.90353L13.5557 2.35774L15.6667 4.46875L9.12087 11.0145L7.00999 8.90353ZM6.58833 9.74969L8.27481 11.4364L5.94198 12.0827L6.58833 9.74969ZM16.7762 3.3594L16.3007 3.83477L14.1895 1.72358L14.6652 1.24817C15.1028 0.810542 15.8124 0.810542 16.2499 1.24817L16.7762 1.77419C17.2131 2.21235 17.2131 2.92142 16.7762 3.3594Z" fill="white" stroke="white" stroke-width="0.2"/>
</svg>
