<svg width="119" height="93" viewBox="0 0 119 93" fill="none" xmlns="http://www.w3.org/2000/svg">
<path d="M77.7214 40.1712C77.7741 40.1326 77.8352 40.107 77.8996 40.0963C77.9641 40.0856 78.0302 40.0903 78.0925 40.1098C78.1549 40.1294 78.2117 40.1633 78.2586 40.2089C78.3054 40.2544 78.3409 40.3104 78.3621 40.3722C78.6579 41.2366 79.3289 42.9428 80.2958 44.0385C83.0142 47.1172 86.5289 47.6252 89.4673 46.9921C90.6912 46.7242 91.8384 46.1823 92.8227 45.4072C93.025 45.262 93.2607 45.1702 93.508 45.1404C93.7552 45.1106 94.0059 45.1437 94.237 45.2366C94.9194 45.5286 95.0483 45.9229 95.2152 46.4651C95.6337 48.0233 95.7862 49.6409 95.6663 51.2499C95.4935 53.4887 94.8141 55.659 93.6796 57.5968C93.0404 58.697 92.0993 59.5909 90.9677 60.1729C89.8362 60.7548 88.5615 61.0002 87.2948 60.8802C85.2715 60.8108 83.2459 60.8602 81.2285 61.0281C70.6655 61.9342 70.7375 63.4811 68.5422 60.702C67.4314 59.2916 74.1877 57.43 74.5024 55.6669L77.1034 40.9219C77.0877 40.8432 77.0951 40.7616 77.1247 40.6869C77.1543 40.6122 77.2048 40.5477 77.2702 40.5011L77.7214 40.1712Z" fill="url(#paint0_linear_158_3291)"/>
<path opacity="0.532546" d="M74.2066 39.2688L75.4198 38.4158C75.4198 38.4158 77.2928 42.1049 78.707 43.6897C81.4179 44.793 82.5971 46.4233 84.3942 46.7759C83.6359 48.8688 81.945 51.5266 82.5705 55.4356C82.8777 57.5551 85.8312 59.9854 87.0103 60.8612C87.0407 60.884 84.1667 60.884 84.0606 60.884C81.5582 60.8498 72.1706 62.1617 72.6142 62.0972C72.3222 61.9304 75.9317 60.0081 75.6473 59.8223L74.2066 39.2688Z" fill="#0D2B5E"/>
<path opacity="0.177363" d="M77.3307 40.4973L77.7895 40.1675C77.8427 40.1298 77.904 40.1049 77.9685 40.0949C78.0329 40.0849 78.0988 40.0901 78.161 40.1099C78.2231 40.1298 78.2798 40.1638 78.3265 40.2093C78.3733 40.2549 78.4088 40.3106 78.4303 40.3722C78.726 41.2367 79.3933 42.9466 80.3601 44.0424C83.0748 47.121 86.5933 47.6291 89.5317 46.9997C90.756 46.7317 91.9041 46.1913 92.8909 45.4187C93.1144 45.2609 93.3764 45.1666 93.6492 45.1457C92.4492 47.7997 90.5998 50.1087 88.272 51.8595C85.9441 53.6102 83.2126 54.7462 80.3298 55.1627C80.1099 55.193 74.2634 55.8831 74.2217 55.6632L77.1525 40.9182C77.139 40.8384 77.1486 40.7563 77.1802 40.6817C77.2118 40.6072 77.264 40.5432 77.3307 40.4973Z" fill="#89E2FF"/>
<path d="M33.346 21.9992C33.346 21.9992 32.5347 19.1935 31.1167 17.6087C28.2389 14.3935 24.5082 13.8627 21.3916 14.5224C20.096 14.7978 18.8791 15.3615 17.8314 16.1717C17.616 16.3232 17.3662 16.4185 17.1047 16.449C16.8432 16.4794 16.5782 16.4441 16.3338 16.3461C15.6096 16.0428 15.4731 15.6333 15.2949 15.0646C14.8531 13.4407 14.6941 11.7529 14.8248 10.0751C15.0091 7.7357 15.7305 5.47038 16.9328 3.45517C17.7487 2.10599 18.9848 1.06175 20.4513 0.482669C21.4885 0.0919536 22.6002 -0.0609362 23.7044 0.0352769C25.9375 0.19831 30.419 0.012529 30.419 0.012529L34.5631 21.1499L33.346 21.9992Z" fill="url(#paint1_linear_158_3291)"/>
<path opacity="0.177363" d="M15.674 15.8907C15.8518 16.0958 16.0788 16.2524 16.3338 16.3457C16.5782 16.4436 16.8432 16.4789 17.1047 16.4485C17.3662 16.418 17.616 16.3227 17.8314 16.1713C18.8791 15.361 20.096 14.7973 21.3916 14.522C24.5081 13.8623 28.2389 14.3931 31.1167 17.6082C32.5347 19.1893 33.346 21.9987 33.346 21.9987L34.5631 21.1456L32.3223 9.7144C29.2515 9.25207 26.1135 9.57613 23.202 10.6563C20.2904 11.7364 17.7003 13.5374 15.674 15.8907Z" fill="#89E2FF"/>
<path opacity="0.532546" d="M24.023 0.0501049C25.3349 1.15721 26.6012 3.12498 27.1206 6.59796C27.6628 10.215 27.6022 12.9373 27.3026 14.9392C28.7701 15.5149 30.078 16.4341 31.1168 17.6197C32.5348 19.2008 33.3462 22.0102 33.3462 22.0102L34.5633 21.1572L30.4192 0.0197754C30.4192 0.0197754 26.3358 0.186597 24.023 0.0614788V0.0501049Z" fill="#0D2B5E"/>
<path d="M23.4617 0.00830598C23.4617 0.00830598 28.8191 0.182712 29.9868 5.81303C31.1546 11.4433 41.1678 59.6176 41.4105 60.7892C41.6266 61.8584 42.5214 62.283 43.5034 62.283H67.1697L72.7469 57.1039C71.2303 49.8622 62.4721 7.59502 62.0057 5.34668C61.6167 3.82027 60.7308 2.46674 59.4876 1.49947C58.2444 0.532214 56.7146 0.00625357 55.1394 0.0045166L23.4617 0.00830598Z" fill="url(#paint2_linear_158_3291)"/>
<path d="M23.4617 0.00830598C23.4617 0.00830598 28.8191 0.182712 29.9868 5.81303C31.1546 11.4433 41.1678 59.6176 41.4105 60.7892C41.6266 61.8584 42.5214 62.283 43.5034 62.283H61.8275C61.9223 60.8954 61.9716 59.5039 61.983 58.1124C61.9772 46.5949 59.1159 35.2586 53.6552 25.1179C48.1945 14.9773 40.3047 6.34872 30.692 0.0045166L23.4617 0.00830598Z" fill="url(#paint3_linear_158_3291)"/>
<path opacity="0.532546" d="M40.7206 57.4679C40.8041 57.847 41.3955 60.7172 41.4107 60.7854C41.6268 61.8546 42.5216 62.2792 43.5036 62.2792H63.1244C66.0893 58.029 68.5045 51.9437 70.3281 45.4414C67.2381 30.5561 62.3661 7.08318 62.0059 5.3429C61.6544 3.89164 60.8366 2.59571 59.6779 1.65381C58.2865 1.93438 54.9841 3.17039 54.0552 8.87654C52.8874 16.141 45.4789 47.0376 43.5187 53.7712C42.9235 55.83 41.8922 56.9864 40.7206 57.4679Z" fill="#1A0539"/>
<path d="M85.221 21.9912C85.221 21.9912 86.0362 19.1855 87.4542 17.6045C90.3319 14.3893 94.0627 13.8623 97.1793 14.522C98.4746 14.8002 99.6911 15.3651 100.739 16.1751C100.956 16.3315 101.209 16.4299 101.475 16.4611C101.74 16.4923 102.009 16.4552 102.256 16.3533C102.98 16.0462 103.117 15.6367 103.291 15.0718C103.73 13.4448 103.885 11.7544 103.75 10.0747C103.567 7.73439 102.847 5.46781 101.646 3.45098C100.828 2.10258 99.5925 1.05766 98.1271 0.474685C97.0896 0.0853462 95.9782 -0.0675005 94.874 0.027293C92.6447 0.186534 88.1594 0.000752854 88.1594 0.000752854L83.9888 21.1343L85.221 21.9912Z" fill="url(#paint4_linear_158_3291)"/>
<path opacity="0.177363" d="M84.0114 21.1458L85.2284 21.9988C85.2284 21.9988 86.0398 19.1894 87.4578 17.6083C90.3355 14.3932 94.0663 13.8624 97.1829 14.5221C98.4784 14.7974 99.6953 15.3611 100.743 16.1714C100.976 16.3337 101.248 16.4318 101.532 16.4557C100.211 13.609 98.1828 11.1483 95.6407 9.30837C93.0985 7.46846 90.1272 6.31077 87.0104 5.9458L84.0114 21.1458Z" fill="#89E2FF"/>
<path opacity="0.532546" d="M84.0114 21.1456L85.2284 21.9987C85.2284 21.9987 86.0398 19.1892 87.4578 17.6082C88.7895 16.0769 90.5676 15.0016 92.5421 14.5333C91.4097 11.51 91.0564 8.25036 91.5147 5.05465C91.9128 2.57504 92.9857 1.0395 94.1459 0.0840514C92.4511 0.148506 90.0966 0.0840499 88.9061 0.0499268C88.6104 0.216751 88.3222 0.402534 88.0417 0.59969L84.0114 21.1456Z" fill="#0D2B5E"/>
<path d="M95.1127 0.00830078C95.1127 0.00830078 89.7554 0.182707 88.5876 5.81302C87.4199 11.4433 78.7602 53.2973 78.0512 56.6375C77.7368 58.2414 76.8707 59.6846 75.6033 60.7165C74.3359 61.7485 72.7471 62.304 71.1128 62.2868H43.238C43.238 62.2868 44.7546 62.2337 45.0352 60.9257C45.3157 59.6176 56.0645 7.76562 56.565 5.35047C56.9553 3.82407 57.8421 2.47081 59.0858 1.50369C60.3296 0.536568 61.8596 0.0105021 63.4351 0.00830078H95.1127Z" fill="url(#paint5_linear_158_3291)"/>
<path d="M60.406 47.1247C60.5695 46.3293 60.9653 45.6002 61.5432 45.0297C62.1211 44.4592 62.8551 44.0728 63.6526 43.9195C64.4501 43.7661 65.2751 43.8527 66.0233 44.1682C66.7716 44.4837 67.4095 45.014 67.8564 45.692C68.3033 46.3701 68.5391 47.1654 68.5341 47.9774C68.529 48.7895 68.2832 49.5818 67.8279 50.2542C67.3725 50.9266 66.728 51.4488 65.9759 51.755C65.2237 52.0611 64.3977 52.1373 63.6022 51.974C63.0739 51.8655 62.5721 51.654 62.1255 51.3516C61.679 51.0492 61.2964 50.6618 60.9996 50.2114C60.7027 49.7611 60.4976 49.2568 60.3957 48.7271C60.2939 48.1975 60.2974 47.653 60.406 47.1247Z" fill="white"/>
<path d="M67.1469 14.3098C67.3133 13.5142 67.712 12.7857 68.2925 12.2167C68.8729 11.6476 69.6091 11.2634 70.4078 11.1127C71.2066 10.9621 72.0322 11.0516 72.7801 11.3701C73.5279 11.6886 74.1646 12.2217 74.6095 12.9021C75.0544 13.5824 75.2875 14.3794 75.2795 15.1922C75.2714 16.005 75.0225 16.7972 74.5642 17.4686C74.1059 18.14 73.4588 18.6604 72.7048 18.964C71.9507 19.2676 71.1236 19.3408 70.3279 19.1743C69.261 18.951 68.3265 18.3131 67.73 17.4008C67.1334 16.4886 66.9237 15.3767 67.1469 14.3098Z" fill="white"/>
<path opacity="0.401048" d="M43.238 62.2868H70.3469C70.825 57.9591 71.0781 53.6095 71.1052 49.2555C71.076 32.4643 67.6695 15.8504 61.0882 0.402588C59.9821 0.785076 58.9878 1.4353 58.1939 2.2953C57.4001 3.1553 56.8314 4.19836 56.5384 5.33149C56.038 7.74665 45.2778 59.5949 45.0086 60.9067C44.7394 62.2185 43.238 62.2868 43.238 62.2868Z" fill="#FEAE53"/>
<path d="M63.7764 30.7192C63.9399 29.9238 64.3357 29.1947 64.9136 28.6242C65.4914 28.0537 66.2255 27.6673 67.023 27.5139C67.8204 27.3606 68.6455 27.4471 69.3937 27.7627C70.142 28.0782 70.7799 28.6085 71.2268 29.2865C71.6737 29.9645 71.9095 30.7599 71.9044 31.5719C71.8993 32.384 71.6536 33.1763 71.1982 33.8487C70.7429 34.5211 70.0984 35.0433 69.3462 35.3494C68.5941 35.6556 67.768 35.7318 66.9726 35.5685C66.444 35.4605 65.942 35.2493 65.4951 34.947C65.0483 34.6447 64.6655 34.2572 64.3686 33.8068C64.0717 33.3564 63.8666 32.8518 63.765 32.322C63.6634 31.7922 63.6672 31.2475 63.7764 30.7192Z" fill="white"/>
<path d="M5.47617 87.7732C5.32837 87.7732 5.2323 87.6993 5.18795 87.5515L0.620781 72.5641L0.59861 72.4754C0.59861 72.3276 0.679903 72.2537 0.842488 72.2537H3.636C3.79859 72.2537 3.90205 72.3276 3.94639 72.4754L6.8951 83.2947C6.90988 83.339 6.93205 83.3612 6.96161 83.3612C6.99118 83.3612 7.01335 83.339 7.02813 83.2947L9.93249 72.4754C9.97684 72.3276 10.0803 72.2537 10.2429 72.2537H12.9699C13.0586 72.2537 13.1251 72.2832 13.1694 72.3424C13.2138 72.4015 13.2212 72.4754 13.1916 72.5641L8.55791 87.5515C8.51357 87.6993 8.41749 87.7732 8.26969 87.7732H5.47617ZM18.1689 76.2001C19.1297 76.2001 19.9869 76.37 20.7407 76.71C21.4945 77.0352 22.0784 77.486 22.4922 78.0624C22.9209 78.6388 23.1352 79.2818 23.1352 79.9913V87.5071C23.1352 87.581 23.1056 87.6476 23.0465 87.7067C23.0021 87.751 22.943 87.7732 22.8691 87.7732H20.2751C20.2012 87.7732 20.1347 87.751 20.0756 87.7067C20.0313 87.6476 20.0091 87.581 20.0091 87.5071V86.7755C20.0091 86.7312 19.9943 86.7016 19.9648 86.6868C19.9352 86.672 19.9056 86.6868 19.8761 86.7312C19.2553 87.5441 18.2576 87.9506 16.883 87.9506C15.7301 87.9506 14.799 87.6697 14.0895 87.1081C13.38 86.5464 13.0253 85.7187 13.0253 84.6249C13.0253 83.4868 13.4244 82.6074 14.2225 81.9866C15.0207 81.3511 16.1588 81.0333 17.6368 81.0333H19.8982C19.9721 81.0333 20.0091 80.9963 20.0091 80.9224V80.4347C20.0091 79.9469 19.8613 79.57 19.5657 79.304C19.2701 79.0231 18.8267 78.8827 18.2354 78.8827C17.7772 78.8827 17.393 78.964 17.0826 79.1266C16.7869 79.2892 16.5948 79.5183 16.5061 79.8139C16.4618 79.9765 16.3657 80.0504 16.2179 80.0356L13.5352 79.6809C13.3579 79.6513 13.2766 79.5848 13.2914 79.4813C13.3505 78.8606 13.5944 78.2989 14.023 77.7964C14.4664 77.2938 15.0429 76.9021 15.7523 76.6213C16.4766 76.3405 17.2821 76.2001 18.1689 76.2001ZM17.7255 85.6226C18.3611 85.6226 18.9006 85.4527 19.344 85.1127C19.7874 84.7728 20.0091 84.3367 20.0091 83.8046V83.0065C20.0091 82.9326 19.9721 82.8956 19.8982 82.8956H18.302C17.6368 82.8956 17.1121 83.0213 16.7278 83.2725C16.3583 83.5238 16.1736 83.8785 16.1736 84.3367C16.1736 84.7358 16.314 85.0536 16.5948 85.2901C16.8756 85.5118 17.2525 85.6226 17.7255 85.6226ZM29.8822 76.2001C30.8429 76.2001 31.7002 76.37 32.454 76.71C33.2078 77.0352 33.7916 77.486 34.2055 78.0624C34.6341 78.6388 34.8484 79.2818 34.8484 79.9913V87.5071C34.8484 87.581 34.8189 87.6476 34.7597 87.7067C34.7154 87.751 34.6563 87.7732 34.5824 87.7732H31.9884C31.9145 87.7732 31.848 87.751 31.7889 87.7067C31.7445 87.6476 31.7224 87.581 31.7224 87.5071V86.7755C31.7224 86.7312 31.7076 86.7016 31.678 86.6868C31.6485 86.672 31.6189 86.6868 31.5893 86.7312C30.9685 87.5441 29.9709 87.9506 28.5963 87.9506C27.4434 87.9506 26.5122 87.6697 25.8028 87.1081C25.0933 86.5464 24.7386 85.7187 24.7386 84.6249C24.7386 83.4868 25.1376 82.6074 25.9358 81.9866C26.7339 81.3511 27.872 81.0333 29.3501 81.0333H31.6115C31.6854 81.0333 31.7224 80.9963 31.7224 80.9224V80.4347C31.7224 79.9469 31.5745 79.57 31.2789 79.304C30.9833 79.0231 30.5399 78.8827 29.9487 78.8827C29.4905 78.8827 29.1062 78.964 28.7958 79.1266C28.5002 79.2892 28.3081 79.5183 28.2194 79.8139C28.175 79.9765 28.079 80.0504 27.9312 80.0356L25.2485 79.6809C25.0711 79.6513 24.9898 79.5848 25.0046 79.4813C25.0637 78.8606 25.3076 78.2989 25.7363 77.7964C26.1797 77.2938 26.7561 76.9021 27.4656 76.6213C28.1898 76.3405 28.9954 76.2001 29.8822 76.2001ZM29.4388 85.6226C30.0743 85.6226 30.6138 85.4527 31.0572 85.1127C31.5006 84.7728 31.7224 84.3367 31.7224 83.8046V83.0065C31.7224 82.9326 31.6854 82.8956 31.6115 82.8956H30.0152C29.3501 82.8956 28.8254 83.0213 28.4411 83.2725C28.0716 83.5238 27.8868 83.8785 27.8868 84.3367C27.8868 84.7358 28.0272 85.0536 28.3081 85.2901C28.5889 85.5118 28.9658 85.6226 29.4388 85.6226ZM43.3526 78.6167C43.3526 78.6906 43.3231 78.7571 43.264 78.8162C43.2196 78.8606 43.1605 78.8827 43.0866 78.8827H40.9582C40.8843 78.8827 40.8473 78.9197 40.8473 78.9936V83.6938C40.8473 84.1815 40.9434 84.5437 41.1356 84.7801C41.3425 85.0166 41.6677 85.1349 42.1111 85.1349H42.8427C42.9166 85.1349 42.9757 85.1644 43.0201 85.2236C43.0792 85.2679 43.1088 85.327 43.1088 85.4009V87.5071C43.1088 87.6697 43.0201 87.7658 42.8427 87.7954C42.2219 87.8249 41.7785 87.8397 41.5125 87.8397C40.2857 87.8397 39.3693 87.6402 38.7633 87.2411C38.1573 86.8272 37.8469 86.0587 37.8321 84.9353V78.9936C37.8321 78.9197 37.7952 78.8827 37.7213 78.8827H36.4575C36.3836 78.8827 36.3171 78.8606 36.258 78.8162C36.2137 78.7571 36.1915 78.6906 36.1915 78.6167V76.6435C36.1915 76.5696 36.2137 76.5105 36.258 76.4661C36.3171 76.407 36.3836 76.3774 36.4575 76.3774H37.7213C37.7952 76.3774 37.8321 76.3405 37.8321 76.2666V73.6283C37.8321 73.5544 37.8543 73.4952 37.8986 73.4509C37.9578 73.3918 38.0243 73.3622 38.0982 73.3622H40.5813C40.6552 73.3622 40.7143 73.3918 40.7587 73.4509C40.8178 73.4952 40.8473 73.5544 40.8473 73.6283V76.2666C40.8473 76.3405 40.8843 76.3774 40.9582 76.3774H43.0866C43.1605 76.3774 43.2196 76.407 43.264 76.4661C43.3231 76.5105 43.3526 76.5696 43.3526 76.6435V78.6167ZM51.8858 76.6435C51.8858 76.5696 51.908 76.5105 51.9523 76.4661C52.0114 76.407 52.0779 76.3774 52.1518 76.3774H54.7458C54.8197 76.3774 54.8788 76.407 54.9232 76.4661C54.9823 76.5105 55.0119 76.5696 55.0119 76.6435V87.5071C55.0119 87.581 54.9823 87.6476 54.9232 87.7067C54.8788 87.751 54.8197 87.7732 54.7458 87.7732H52.1518C52.0779 87.7732 52.0114 87.751 51.9523 87.7067C51.908 87.6476 51.8858 87.581 51.8858 87.5071V86.7533C51.8858 86.709 51.871 86.6868 51.8414 86.6868C51.8119 86.672 51.7823 86.6868 51.7528 86.7312C51.1615 87.5293 50.2451 87.9284 49.0036 87.9284C47.8803 87.9284 46.9565 87.5884 46.2322 86.9085C45.508 86.2286 45.1459 85.2753 45.1459 84.0485V76.6435C45.1459 76.5696 45.168 76.5105 45.2124 76.4661C45.2715 76.407 45.338 76.3774 45.4119 76.3774H47.9837C48.0576 76.3774 48.1168 76.407 48.1611 76.4661C48.2202 76.5105 48.2498 76.5696 48.2498 76.6435V83.2725C48.2498 83.8638 48.405 84.3441 48.7154 84.7136C49.0405 85.0831 49.4839 85.2679 50.0456 85.2679C50.5481 85.2679 50.962 85.1201 51.2872 84.8245C51.6123 84.5141 51.8119 84.115 51.8858 83.6273V76.6435ZM67.4079 87.9506C66.255 87.9506 65.2426 87.7289 64.3705 87.2854C63.4985 86.8272 62.8259 86.1917 62.353 85.3788C61.88 84.5658 61.6435 83.6273 61.6435 82.5631V77.4416C61.6435 76.3774 61.88 75.4389 62.353 74.6259C62.8259 73.813 63.4985 73.1848 64.3705 72.7414C65.2426 72.298 66.255 72.0763 67.4079 72.0763C68.546 72.0763 69.5437 72.2906 70.401 72.7193C71.273 73.1331 71.9455 73.7317 72.4185 74.5151C72.9062 75.2837 73.1501 76.1779 73.1501 77.1977C73.1501 77.3308 73.0614 77.4121 72.8841 77.4416L70.2901 77.5968H70.2458C70.098 77.5968 70.024 77.5155 70.024 77.3529C70.024 76.5696 69.7802 75.9414 69.2924 75.4684C68.8194 74.9955 68.1913 74.759 67.4079 74.759C66.6098 74.759 65.9668 74.9955 65.479 75.4684C65.0061 75.9414 64.7696 76.5696 64.7696 77.3529V82.6961C64.7696 83.4647 65.0061 84.0855 65.479 84.5584C65.9668 85.0314 66.6098 85.2679 67.4079 85.2679C68.1913 85.2679 68.8194 85.0314 69.2924 84.5584C69.7802 84.0855 70.024 83.4647 70.024 82.6961C70.024 82.5335 70.1127 82.4522 70.2901 82.4522L72.8841 82.5631C72.958 82.5631 73.0171 82.5852 73.0614 82.6296C73.1206 82.6739 73.1501 82.7257 73.1501 82.7848C73.1501 83.8046 72.9062 84.7062 72.4185 85.4896C71.9455 86.273 71.273 86.879 70.401 87.3076C69.5437 87.7362 68.546 87.9506 67.4079 87.9506ZM81.1848 76.2001C82.3672 76.2001 83.3205 76.5622 84.0448 77.2864C84.769 78.0107 85.1312 78.9936 85.1312 80.2351V87.5071C85.1312 87.581 85.1016 87.6476 85.0425 87.7067C84.9981 87.751 84.939 87.7732 84.8651 87.7732H82.2711C82.1972 87.7732 82.1307 87.751 82.0716 87.7067C82.0273 87.6476 82.0051 87.581 82.0051 87.5071V80.8781C82.0051 80.2869 81.8351 79.8065 81.4952 79.437C81.17 79.0675 80.734 78.8827 80.1871 78.8827C79.6402 78.8827 79.1968 79.0675 78.8568 79.437C78.5317 79.8065 78.3691 80.2869 78.3691 80.8781V87.5071C78.3691 87.581 78.3395 87.6476 78.2804 87.7067C78.2361 87.751 78.1769 87.7732 78.103 87.7732H75.5091C75.4352 87.7732 75.3686 87.751 75.3095 87.7067C75.2652 87.6476 75.243 87.581 75.243 87.5071V72.5197C75.243 72.4458 75.2652 72.3867 75.3095 72.3424C75.3686 72.2832 75.4352 72.2537 75.5091 72.2537H78.103C78.1769 72.2537 78.2361 72.2832 78.2804 72.3424C78.3395 72.3867 78.3691 72.4458 78.3691 72.5197V77.4195C78.3691 77.4638 78.3839 77.4934 78.4134 77.5081C78.443 77.5229 78.4652 77.5155 78.4799 77.486C79.0859 76.6287 79.9875 76.2001 81.1848 76.2001ZM89.0526 75.0915C88.5501 75.0915 88.1288 74.9289 87.7889 74.6038C87.4637 74.2638 87.3011 73.8426 87.3011 73.34C87.3011 72.8227 87.4637 72.4015 87.7889 72.0763C88.114 71.7511 88.5353 71.5885 89.0526 71.5885C89.5699 71.5885 89.9912 71.7511 90.3163 72.0763C90.6415 72.4015 90.8041 72.8227 90.8041 73.34C90.8041 73.8426 90.6341 74.2638 90.2942 74.6038C89.969 74.9289 89.5551 75.0915 89.0526 75.0915ZM87.7224 87.7732C87.6485 87.7732 87.5819 87.751 87.5228 87.7067C87.4785 87.6476 87.4563 87.581 87.4563 87.5071V76.6213C87.4563 76.5474 87.4785 76.4883 87.5228 76.4439C87.5819 76.3848 87.6485 76.3553 87.7224 76.3553H90.3163C90.3902 76.3553 90.4494 76.3848 90.4937 76.4439C90.5528 76.4883 90.5824 76.5474 90.5824 76.6213V87.5071C90.5824 87.581 90.5528 87.6476 90.4937 87.7067C90.4494 87.751 90.3902 87.7732 90.3163 87.7732H87.7224ZM94.7036 75.0915C94.201 75.0915 93.7798 74.9289 93.4398 74.6038C93.1147 74.2638 92.9521 73.8426 92.9521 73.34C92.9521 72.8227 93.1147 72.4015 93.4398 72.0763C93.765 71.7511 94.1862 71.5885 94.7036 71.5885C95.2209 71.5885 95.6421 71.7511 95.9673 72.0763C96.2925 72.4015 96.455 72.8227 96.455 73.34C96.455 73.8426 96.2851 74.2638 95.9451 74.6038C95.6199 74.9289 95.2061 75.0915 94.7036 75.0915ZM93.3733 87.7732C93.2994 87.7732 93.2329 87.751 93.1738 87.7067C93.1294 87.6476 93.1073 87.581 93.1073 87.5071V76.6213C93.1073 76.5474 93.1294 76.4883 93.1738 76.4439C93.2329 76.3848 93.2994 76.3553 93.3733 76.3553H95.9673C96.0412 76.3553 96.1003 76.3848 96.1447 76.4439C96.2038 76.4883 96.2333 76.5474 96.2333 76.6213V87.5071C96.2333 87.581 96.2038 87.6476 96.1447 87.7067C96.1003 87.751 96.0412 87.7732 95.9673 87.7732H93.3733ZM105.21 78.6167C105.21 78.6906 105.18 78.7571 105.121 78.8162C105.077 78.8606 105.018 78.8827 104.944 78.8827H102.815C102.742 78.8827 102.705 78.9197 102.705 78.9936V83.6938C102.705 84.1815 102.801 84.5437 102.993 84.7801C103.2 85.0166 103.525 85.1349 103.968 85.1349H104.7C104.774 85.1349 104.833 85.1644 104.877 85.2236C104.936 85.2679 104.966 85.327 104.966 85.4009V87.5071C104.966 87.6697 104.877 87.7658 104.7 87.7954C104.079 87.8249 103.636 87.8397 103.37 87.8397C102.143 87.8397 101.227 87.6402 100.621 87.2411C100.015 86.8272 99.7042 86.0587 99.6894 84.9353V78.9936C99.6894 78.9197 99.6524 78.8827 99.5785 78.8827H98.3148C98.2409 78.8827 98.1744 78.8606 98.1152 78.8162C98.0709 78.7571 98.0487 78.6906 98.0487 78.6167V76.6435C98.0487 76.5696 98.0709 76.5105 98.1152 76.4661C98.1744 76.407 98.2409 76.3774 98.3148 76.3774H99.5785C99.6524 76.3774 99.6894 76.3405 99.6894 76.2666V73.6283C99.6894 73.5544 99.7115 73.4952 99.7559 73.4509C99.815 73.3918 99.8815 73.3622 99.9554 73.3622H102.439C102.512 73.3622 102.572 73.3918 102.616 73.4509C102.675 73.4952 102.705 73.5544 102.705 73.6283V76.2666C102.705 76.3405 102.742 76.3774 102.815 76.3774H104.944C105.018 76.3774 105.077 76.407 105.121 76.4661C105.18 76.5105 105.21 76.5696 105.21 76.6435V78.6167ZM113.743 76.6435C113.743 76.5696 113.765 76.5105 113.81 76.4661C113.869 76.407 113.935 76.3774 114.009 76.3774H116.603C116.677 76.3774 116.736 76.407 116.78 76.4661C116.84 76.5105 116.869 76.5696 116.869 76.6435V87.5071C116.869 87.581 116.84 87.6476 116.78 87.7067C116.736 87.751 116.677 87.7732 116.603 87.7732H114.009C113.935 87.7732 113.869 87.751 113.81 87.7067C113.765 87.6476 113.743 87.581 113.743 87.5071V86.7533C113.743 86.709 113.728 86.6868 113.699 86.6868C113.669 86.672 113.64 86.6868 113.61 86.7312C113.019 87.5293 112.102 87.9284 110.861 87.9284C109.738 87.9284 108.814 87.5884 108.089 86.9085C107.365 86.2286 107.003 85.2753 107.003 84.0485V76.6435C107.003 76.5696 107.025 76.5105 107.07 76.4661C107.129 76.407 107.195 76.3774 107.269 76.3774H109.841C109.915 76.3774 109.974 76.407 110.018 76.4661C110.077 76.5105 110.107 76.5696 110.107 76.6435V83.2725C110.107 83.8638 110.262 84.3441 110.573 84.7136C110.898 85.0831 111.341 85.2679 111.903 85.2679C112.405 85.2679 112.819 85.1201 113.144 84.8245C113.47 84.5141 113.669 84.115 113.743 83.6273V76.6435Z" fill="url(#paint6_linear_158_3291)"/>
<defs>
<linearGradient id="paint0_linear_158_3291" x1="82.2822" y1="40.0225" x2="82.2977" y2="62.3024" gradientUnits="userSpaceOnUse">
<stop stop-color="#0964E7"/>
<stop offset="1" stop-color="#48D4FA"/>
</linearGradient>
<linearGradient id="paint1_linear_158_3291" x1="24.9392" y1="22.0784" x2="24.9392" y2="-0.0170453" gradientUnits="userSpaceOnUse">
<stop stop-color="#0964E7"/>
<stop offset="1" stop-color="#48D4FA"/>
</linearGradient>
<linearGradient id="paint2_linear_158_3291" x1="48.6097" y1="63.6776" x2="48.6097" y2="1.104" gradientUnits="userSpaceOnUse">
<stop stop-color="#0964E7"/>
<stop offset="1" stop-color="#48D4FA"/>
</linearGradient>
<linearGradient id="paint3_linear_158_3291" x1="43.1173" y1="63.6776" x2="43.1173" y2="1.104" gradientUnits="userSpaceOnUse">
<stop offset="0.33" stop-color="#0964E7"/>
<stop offset="1" stop-color="#48D4FA"/>
</linearGradient>
<linearGradient id="paint4_linear_158_3291" x1="94.096" y1="22.4836" x2="94.096" y2="0.38824" gradientUnits="userSpaceOnUse">
<stop stop-color="#0964E7"/>
<stop offset="1" stop-color="#48D4FA"/>
</linearGradient>
<linearGradient id="paint5_linear_158_3291" x1="69.4182" y1="62.2807" x2="69.4182" y2="-0.0520584" gradientUnits="userSpaceOnUse">
<stop stop-color="#FF981B"/>
<stop offset="1" stop-color="#FC236C"/>
</linearGradient>
<linearGradient id="paint6_linear_158_3291" x1="60.7202" y1="93.3778" x2="60.7202" y2="66.2499" gradientUnits="userSpaceOnUse">
<stop stop-color="#0964E7"/>
<stop offset="1" stop-color="#48D4FA"/>
</linearGradient>
</defs>
</svg>
