<svg width="230" height="40" viewBox="0 0 230 40" fill="none" xmlns="http://www.w3.org/2000/svg">
<path d="M38.1392 25.8952C38.1711 25.8719 38.2081 25.8563 38.2471 25.8499C38.2862 25.8434 38.3261 25.8462 38.3639 25.858C38.4016 25.8699 38.4361 25.8904 38.4644 25.918C38.4928 25.9456 38.5142 25.9795 38.5271 26.0169C38.7061 26.5402 39.1124 27.573 39.6976 28.2363C41.3433 30.1 43.4709 30.4076 45.2497 30.0243C45.9906 29.8621 46.6851 29.5341 47.2809 29.0649C47.4034 28.977 47.5461 28.9214 47.6957 28.9033C47.8454 28.8853 47.9972 28.9053 48.137 28.9616C48.5502 29.1383 48.6282 29.377 48.7292 29.7052C48.9826 30.6485 49.0749 31.6278 49.0023 32.6018C48.8977 33.957 48.4864 35.2708 47.7997 36.4439C47.4127 37.1099 46.843 37.6511 46.158 38.0033C45.473 38.3556 44.7014 38.5042 43.9346 38.4315C42.7098 38.3895 41.4836 38.4194 40.2623 38.521C33.8679 39.0696 33.9115 40.006 32.5826 38.3237C31.9101 37.4698 36.0001 36.3429 36.1906 35.2756L37.7651 26.3497C37.7556 26.302 37.7601 26.2526 37.778 26.2074C37.7959 26.1622 37.8265 26.1231 37.8661 26.0949L38.1392 25.8952Z" fill="url(#paint0_linear_20_1509)"/>
<path opacity="0.532546" d="M36.0111 25.3485L36.7455 24.8321C36.7455 24.8321 37.8793 27.0653 38.7354 28.0247C40.3765 28.6926 41.0903 29.6795 42.1782 29.893C41.7192 31.1599 40.6955 32.7689 41.0742 35.1352C41.2601 36.4182 43.0481 37.8894 43.7619 38.4196C43.7803 38.4334 42.0405 38.4334 41.9762 38.4334C40.4614 38.4127 34.7785 39.2068 35.0471 39.1678C34.8703 39.0668 37.0554 37.9032 36.8832 37.7907L36.0111 25.3485Z" fill="#0D2B5E"/>
<path opacity="0.177363" d="M37.9026 26.0926L38.1803 25.8929C38.2125 25.87 38.2496 25.855 38.2886 25.849C38.3277 25.8429 38.3676 25.846 38.4052 25.858C38.4428 25.8701 38.4771 25.8907 38.5054 25.9182C38.5337 25.9458 38.5552 25.9795 38.5682 26.0168C38.7472 26.5401 39.1512 27.5752 39.7364 28.2386C41.3798 30.1022 43.5097 30.4098 45.2885 30.0288C46.0296 29.8666 46.7247 29.5395 47.322 29.0717C47.4574 28.9762 47.616 28.9191 47.7811 28.9065C47.0546 30.5131 45.9351 31.9109 44.5259 32.9707C43.1167 34.0305 41.4632 34.7182 39.7181 34.9703C39.585 34.9887 36.0458 35.4064 36.0205 35.2733L37.7947 26.3473C37.7865 26.299 37.7923 26.2493 37.8115 26.2042C37.8306 26.159 37.8622 26.1203 37.9026 26.0926Z" fill="#89E2FF"/>
<path d="M11.2764 14.8944C11.2764 14.8944 10.7852 13.1959 9.92682 12.2365C8.18477 10.2902 5.92631 9.96889 4.03966 10.3683C3.25539 10.5349 2.51875 10.8762 1.88448 11.3667C1.75411 11.4584 1.6029 11.516 1.44458 11.5345C1.28626 11.5529 1.12584 11.5315 0.977886 11.4722C0.539505 11.2886 0.456879 11.0407 0.349005 10.6965C0.0815779 9.71342 -0.0146941 8.69169 0.0644023 7.676C0.176013 6.25985 0.612702 4.88852 1.34053 3.6686C1.83445 2.85186 2.58269 2.21973 3.47046 1.86917C4.09834 1.63265 4.77131 1.5401 5.43973 1.59834C6.79159 1.69704 9.50451 1.58457 9.50451 1.58457L12.0131 14.3802L11.2764 14.8944Z" fill="url(#paint1_linear_20_1509)"/>
<path opacity="0.177363" d="M0.57843 11.1967C0.686032 11.3209 0.823463 11.4157 0.977792 11.4721C1.12575 11.5314 1.28617 11.5528 1.44449 11.5344C1.60281 11.5159 1.75402 11.4582 1.88439 11.3665C2.51865 10.876 3.25529 10.5348 4.03957 10.3681C5.92621 9.96876 8.18468 10.2901 9.92673 12.2364C10.7851 13.1935 11.2763 14.8942 11.2763 14.8942L12.0131 14.3778L10.6566 7.45783C8.79763 7.17796 6.89805 7.37413 5.13551 8.02801C3.37297 8.68188 1.80507 9.7721 0.57843 11.1967Z" fill="#89E2FF"/>
<path opacity="0.532546" d="M5.63223 1.60738C6.42637 2.27757 7.19296 3.46878 7.5074 5.57117C7.83561 7.76078 7.79889 9.40872 7.61757 10.6206C8.50589 10.9691 9.29769 11.5255 9.92653 12.2433C10.7849 13.2004 11.2761 14.9011 11.2761 14.9011L12.0129 14.3847L9.50422 1.58902C9.50422 1.58902 7.0323 1.69001 5.63223 1.61427V1.60738Z" fill="#0D2B5E"/>
<path d="M5.29248 1.58219C5.29248 1.58219 8.53558 1.68777 9.2425 5.09612C9.94942 8.50447 16.011 37.6671 16.1579 38.3763C16.2887 39.0236 16.8304 39.2806 17.4248 39.2806H31.7514L35.1276 36.1454C34.2095 31.7616 28.9077 6.17486 28.6254 4.81381C28.3899 3.88979 27.8536 3.07042 27.101 2.48488C26.3484 1.89934 25.4223 1.58095 24.4688 1.5799L5.29248 1.58219Z" fill="url(#paint2_linear_20_1509)"/>
<path d="M5.29248 1.58219C5.29248 1.58219 8.53558 1.68777 9.2425 5.09612C9.94942 8.50447 16.011 37.6671 16.1579 38.3763C16.2887 39.0236 16.8304 39.2806 17.4248 39.2806H28.5175C28.5749 38.4406 28.6047 37.5983 28.6116 36.7559C28.6081 29.7837 26.876 22.9212 23.5703 16.7825C20.2646 10.6438 15.4885 5.4204 9.6694 1.5799L5.29248 1.58219Z" fill="url(#paint3_linear_20_1509)"/>
<path opacity="0.532546" d="M15.7403 36.3657C15.7908 36.5952 16.1489 38.3327 16.158 38.374C16.2889 39.0212 16.8305 39.2783 17.425 39.2783H29.3026C31.0974 36.7054 32.5595 33.0216 33.6634 29.0854C31.7929 20.0745 28.8435 5.86496 28.6255 4.81146C28.4127 3.93293 27.9177 3.14844 27.2163 2.57825C26.3739 2.74809 24.3748 3.49632 23.8125 6.95058C23.1056 11.3482 18.6208 30.0516 17.4342 34.1279C17.0738 35.3742 16.4495 36.0742 15.7403 36.3657Z" fill="#1A0539"/>
<path d="M42.679 14.8896C42.679 14.8896 43.1724 13.1912 44.0308 12.2341C45.7729 10.2878 48.0314 9.96875 49.918 10.3681C50.7021 10.5365 51.4386 10.8784 52.0732 11.3688C52.2044 11.4635 52.3576 11.523 52.5182 11.5419C52.6789 11.5608 52.8417 11.5383 52.9913 11.4767C53.4296 11.2908 53.5123 11.0429 53.6178 10.7009C53.8834 9.71598 53.9773 8.69267 53.8956 7.67585C53.7847 6.25915 53.3489 4.88707 52.6217 3.66616C52.1266 2.8499 51.3789 2.21735 50.4918 1.86444C49.8637 1.62875 49.1909 1.53623 48.5225 1.59361C47.173 1.69001 44.4577 1.57754 44.4577 1.57754L41.933 14.3709L42.679 14.8896Z" fill="url(#paint4_linear_20_1509)"/>
<path opacity="0.177363" d="M41.9467 14.3776L42.6835 14.8941C42.6835 14.8941 43.1747 13.1933 44.0331 12.2362C45.7751 10.2899 48.0336 9.96859 49.9202 10.3679C50.7045 10.5346 51.4411 10.8759 52.0754 11.3664C52.2167 11.4647 52.3813 11.524 52.5528 11.5385C51.7533 9.81522 50.5256 8.3256 48.9866 7.2118C47.4477 6.09799 45.649 5.39718 43.7622 5.17624L41.9467 14.3776Z" fill="#89E2FF"/>
<path opacity="0.532546" d="M41.9467 14.3777L42.6835 14.8941C42.6835 14.8941 43.1747 13.1934 44.0331 12.2363C44.8392 11.3093 45.9156 10.6584 47.1109 10.3749C46.4254 8.54475 46.2115 6.57149 46.4889 4.63695C46.7299 3.13589 47.3795 2.20634 48.0818 1.62796C47.0558 1.66698 45.6305 1.62796 44.9098 1.6073C44.7308 1.70829 44.5564 1.82075 44.3865 1.9401L41.9467 14.3777Z" fill="#0D2B5E"/>
<path d="M48.667 1.58191C48.667 1.58191 45.4239 1.68749 44.717 5.09584C44.0101 8.50419 38.7679 33.8408 38.3387 35.8628C38.1484 36.8337 37.6241 37.7074 36.8568 38.3321C36.0896 38.9568 35.1278 39.2931 34.1385 39.2826H17.2643C17.2643 39.2826 18.1824 39.2505 18.3522 38.4587C18.522 37.6668 25.0289 6.27786 25.3319 4.81583C25.5681 3.89181 26.105 3.07261 26.8579 2.48715C27.6108 1.9017 28.537 1.58324 29.4907 1.58191H48.667Z" fill="url(#paint5_linear_20_1509)"/>
<path d="M27.6574 30.1045C27.7565 29.623 27.996 29.1816 28.3459 28.8363C28.6957 28.4909 29.1401 28.257 29.6228 28.1642C30.1056 28.0713 30.605 28.1237 31.058 28.3147C31.5109 28.5057 31.8971 28.8267 32.1676 29.2372C32.4382 29.6477 32.5809 30.1291 32.5778 30.6207C32.5748 31.1123 32.426 31.5919 32.1503 31.9989C31.8747 32.406 31.4845 32.7221 31.0292 32.9074C30.5739 33.0928 30.0738 33.1389 29.5923 33.04C29.2725 32.9744 28.9687 32.8463 28.6984 32.6633C28.4281 32.4802 28.1964 32.2457 28.0168 31.9731C27.8371 31.7005 27.7129 31.3951 27.6512 31.0745C27.5896 30.7539 27.5917 30.4243 27.6574 30.1045Z" fill="white"/>
<path d="M31.7375 10.2395C31.8383 9.75783 32.0796 9.31687 32.431 8.97238C32.7824 8.62788 33.228 8.39532 33.7116 8.30411C34.1951 8.21289 34.6949 8.26711 35.1476 8.45992C35.6003 8.65272 35.9857 8.97545 36.2551 9.38729C36.5244 9.79913 36.6655 10.2816 36.6606 10.7736C36.6558 11.2657 36.5051 11.7453 36.2276 12.1517C35.9502 12.5581 35.5585 12.8731 35.102 13.0569C34.6456 13.2407 34.1448 13.285 33.6632 13.1842C33.0173 13.0491 32.4516 12.6629 32.0905 12.1106C31.7294 11.5584 31.6024 10.8853 31.7375 10.2395Z" fill="white"/>
<path opacity="0.401048" d="M17.2643 39.2829H33.6749C33.9643 36.6631 34.1175 34.03 34.1339 31.3943C34.1162 21.2296 32.054 11.1723 28.07 1.82086C27.4004 2.0524 26.7985 2.44602 26.318 2.96663C25.8374 3.48724 25.4931 4.11866 25.3158 4.80461C25.0128 6.26664 18.4991 37.6533 18.3361 38.4475C18.1732 39.2416 17.2643 39.2829 17.2643 39.2829Z" fill="#FEAE53"/>
<path d="M29.6973 20.1734C29.7963 19.6919 30.0358 19.2505 30.3857 18.9051C30.7355 18.5598 31.1799 18.3259 31.6626 18.233C32.1454 18.1402 32.6448 18.1926 33.0978 18.3836C33.5507 18.5746 33.9369 18.8956 34.2074 19.3061C34.478 19.7165 34.6207 20.198 34.6176 20.6896C34.6146 21.1812 34.4658 21.6608 34.1901 22.0678C33.9145 22.4749 33.5243 22.791 33.069 22.9763C32.6137 23.1616 32.1136 23.2078 31.6321 23.1089C31.3121 23.0435 31.0082 22.9157 30.7377 22.7327C30.4672 22.5497 30.2355 22.3151 30.0558 22.0425C29.8761 21.7698 29.7519 21.4644 29.6904 21.1436C29.6288 20.8229 29.6312 20.4932 29.6973 20.1734Z" fill="white"/>
<path d="M66.7186 32.5083C66.5048 32.5083 66.3659 32.4014 66.3018 32.1877L59.6974 10.515L59.6653 10.3867C59.6653 10.173 59.7829 10.0661 60.018 10.0661H64.0576C64.2927 10.0661 64.4423 10.173 64.5064 10.3867L68.7704 26.0321C68.7918 26.0963 68.8238 26.1283 68.8666 26.1283C68.9093 26.1283 68.9414 26.0963 68.9628 26.0321L73.1627 10.3867C73.2268 10.173 73.3764 10.0661 73.6115 10.0661H77.5549C77.6832 10.0661 77.7793 10.1089 77.8435 10.1944C77.9076 10.2799 77.9183 10.3867 77.8755 10.515L71.1749 32.1877C71.1108 32.4014 70.9719 32.5083 70.7581 32.5083H66.7186ZM85.073 15.7729C86.4623 15.7729 87.702 16.0187 88.792 16.5103C89.8821 16.9805 90.7263 17.6324 91.3248 18.4659C91.9446 19.2995 92.2545 20.2292 92.2545 21.2552V32.1236C92.2545 32.2304 92.2118 32.3266 92.1263 32.4121C92.0622 32.4762 91.9767 32.5083 91.8698 32.5083H88.1188C88.0119 32.5083 87.9157 32.4762 87.8302 32.4121C87.7661 32.3266 87.734 32.2304 87.734 32.1236V31.0656C87.734 31.0015 87.7127 30.9587 87.6699 30.9373C87.6272 30.916 87.5844 30.9374 87.5417 31.0015C86.644 32.177 85.2013 32.7648 83.2135 32.7648C81.5464 32.7648 80.1999 32.3587 79.174 31.5465C78.148 30.7343 77.6351 29.5374 77.6351 27.9557C77.6351 26.31 78.2121 25.0383 79.3663 24.1406C80.5205 23.2215 82.1662 22.762 84.3036 22.762H87.5737C87.6806 22.762 87.734 22.7086 87.734 22.6017V21.8964C87.734 21.191 87.5203 20.646 87.0928 20.2613C86.6654 19.8552 86.0242 19.6522 85.1692 19.6522C84.5066 19.6522 83.9509 19.7697 83.5021 20.0048C83.0746 20.2399 82.7968 20.5712 82.6685 20.9987C82.6044 21.2338 82.4655 21.3407 82.2517 21.3193L78.3724 20.8063C78.116 20.7636 77.9984 20.6674 78.0198 20.5178C78.1053 19.6201 78.4579 18.8079 79.0778 18.0812C79.719 17.3545 80.5525 16.7881 81.5785 16.382C82.6258 15.9759 83.7906 15.7729 85.073 15.7729ZM84.4318 29.3985C85.3509 29.3985 86.131 29.1527 86.7722 28.6611C87.4134 28.1695 87.734 27.539 87.734 26.7695V25.6154C87.734 25.5085 87.6806 25.4551 87.5737 25.4551H85.2654C84.3036 25.4551 83.5448 25.6367 82.9891 26.0001C82.4548 26.3634 82.1876 26.8764 82.1876 27.539C82.1876 28.1161 82.3907 28.5756 82.7968 28.9176C83.2029 29.2382 83.7479 29.3985 84.4318 29.3985ZM102.011 15.7729C103.4 15.7729 104.64 16.0187 105.73 16.5103C106.82 16.9805 107.664 17.6324 108.263 18.4659C108.883 19.2995 109.193 20.2292 109.193 21.2552V32.1236C109.193 32.2304 109.15 32.3266 109.064 32.4121C109 32.4762 108.915 32.5083 108.808 32.5083H105.057C104.95 32.5083 104.854 32.4762 104.768 32.4121C104.704 32.3266 104.672 32.2304 104.672 32.1236V31.0656C104.672 31.0015 104.651 30.9587 104.608 30.9373C104.565 30.916 104.522 30.9374 104.48 31.0015C103.582 32.177 102.139 32.7648 100.152 32.7648C98.4845 32.7648 97.1379 32.3587 96.112 31.5465C95.0861 30.7343 94.5731 29.5374 94.5731 27.9557C94.5731 26.31 95.1502 25.0383 96.3044 24.1406C97.4585 23.2215 99.1043 22.762 101.242 22.762H104.512C104.619 22.762 104.672 22.7086 104.672 22.6017V21.8964C104.672 21.191 104.458 20.646 104.031 20.2613C103.603 19.8552 102.962 19.6522 102.107 19.6522C101.445 19.6522 100.889 19.7697 100.44 20.0048C100.013 20.2399 99.7348 20.5712 99.6066 20.9987C99.5425 21.2338 99.4035 21.3407 99.1898 21.3193L95.3105 20.8063C95.054 20.7636 94.9365 20.6674 94.9578 20.5178C95.0433 19.6201 95.396 18.8079 96.0158 18.0812C96.657 17.3545 97.4906 16.7881 98.5165 16.382C99.5638 15.9759 100.729 15.7729 102.011 15.7729ZM101.37 29.3985C102.289 29.3985 103.069 29.1527 103.71 28.6611C104.351 28.1695 104.672 27.539 104.672 26.7695V25.6154C104.672 25.5085 104.619 25.4551 104.512 25.4551H102.203C101.242 25.4551 100.483 25.6367 99.9272 26.0001C99.3928 26.3634 99.1257 26.8764 99.1257 27.539C99.1257 28.1161 99.3287 28.5756 99.7348 28.9176C100.141 29.2382 100.686 29.3985 101.37 29.3985ZM121.49 19.2674C121.49 19.3743 121.447 19.4705 121.362 19.556C121.298 19.6201 121.212 19.6522 121.105 19.6522H118.028C117.921 19.6522 117.867 19.7056 117.867 19.8125V26.6092C117.867 27.3145 118.006 27.8382 118.284 28.1802C118.583 28.5221 119.054 28.6931 119.695 28.6931H120.753C120.86 28.6931 120.945 28.7359 121.009 28.8214C121.095 28.8855 121.138 28.971 121.138 29.0779V32.1236C121.138 32.3587 121.009 32.4976 120.753 32.5404C119.855 32.5831 119.214 32.6045 118.829 32.6045C117.055 32.6045 115.73 32.3159 114.854 31.7389C113.977 31.1404 113.529 30.029 113.507 28.4046V19.8125C113.507 19.7056 113.454 19.6522 113.347 19.6522H111.519C111.413 19.6522 111.316 19.6201 111.231 19.556C111.167 19.4705 111.135 19.3743 111.135 19.2674V16.4141C111.135 16.3072 111.167 16.2217 111.231 16.1576C111.316 16.0721 111.413 16.0293 111.519 16.0293H113.347C113.454 16.0293 113.507 15.9759 113.507 15.869V12.0539C113.507 11.947 113.539 11.8615 113.603 11.7974C113.689 11.7119 113.785 11.6692 113.892 11.6692H117.483C117.59 11.6692 117.675 11.7119 117.739 11.7974C117.825 11.8615 117.867 11.947 117.867 12.0539V15.869C117.867 15.9759 117.921 16.0293 118.028 16.0293H121.105C121.212 16.0293 121.298 16.0721 121.362 16.1576C121.447 16.2217 121.49 16.3072 121.49 16.4141V19.2674ZM133.83 16.4141C133.83 16.3072 133.862 16.2217 133.926 16.1576C134.011 16.0721 134.107 16.0293 134.214 16.0293H137.965C138.072 16.0293 138.158 16.0721 138.222 16.1576C138.307 16.2217 138.35 16.3072 138.35 16.4141V32.1236C138.35 32.2304 138.307 32.3266 138.222 32.4121C138.158 32.4762 138.072 32.5083 137.965 32.5083H134.214C134.107 32.5083 134.011 32.4762 133.926 32.4121C133.862 32.3266 133.83 32.2304 133.83 32.1236V31.0335C133.83 30.9694 133.808 30.9373 133.765 30.9373C133.723 30.916 133.68 30.9374 133.637 31.0015C132.782 32.1556 131.457 32.7327 129.662 32.7327C128.037 32.7327 126.702 32.2411 125.654 31.258C124.607 30.2748 124.083 28.8962 124.083 27.1222V16.4141C124.083 16.3072 124.115 16.2217 124.179 16.1576C124.265 16.0721 124.361 16.0293 124.468 16.0293H128.187C128.294 16.0293 128.379 16.0721 128.443 16.1576C128.529 16.2217 128.572 16.3072 128.572 16.4141V26.0001C128.572 26.855 128.796 27.5497 129.245 28.084C129.715 28.6183 130.356 28.8855 131.169 28.8855C131.895 28.8855 132.494 28.6718 132.964 28.2443C133.434 27.7954 133.723 27.2184 133.83 26.513V16.4141ZM156.276 32.7648C154.608 32.7648 153.144 32.4442 151.883 31.803C150.622 31.1404 149.65 30.2213 148.966 29.0458C148.282 27.8703 147.94 26.513 147.94 24.9741V17.5682C147.94 16.0293 148.282 14.6721 148.966 13.4966C149.65 12.321 150.622 11.4127 151.883 10.7715C153.144 10.1303 154.608 9.80967 156.276 9.80967C157.921 9.80967 159.364 10.1196 160.604 10.7394C161.865 11.3379 162.837 12.2035 163.521 13.3363C164.226 14.4477 164.579 15.7408 164.579 17.2156C164.579 17.4079 164.451 17.5255 164.194 17.5682L160.443 17.7927H160.379C160.165 17.7927 160.059 17.6751 160.059 17.44C160.059 16.3072 159.706 15.3988 159.001 14.7149C158.317 14.0309 157.408 13.689 156.276 13.689C155.121 13.689 154.192 14.0309 153.486 14.7149C152.802 15.3988 152.46 16.3072 152.46 17.44V25.1665C152.46 26.2779 152.802 27.1756 153.486 27.8596C154.192 28.5435 155.121 28.8855 156.276 28.8855C157.408 28.8855 158.317 28.5435 159.001 27.8596C159.706 27.1756 160.059 26.2779 160.059 25.1665C160.059 24.9314 160.187 24.8138 160.443 24.8138L164.194 24.9741C164.301 24.9741 164.387 25.0062 164.451 25.0703C164.536 25.1345 164.579 25.2093 164.579 25.2948C164.579 26.7695 164.226 28.0733 163.521 29.2061C162.837 30.3389 161.865 31.2152 160.604 31.835C159.364 32.4549 157.921 32.7648 156.276 32.7648ZM176.198 15.7729C177.908 15.7729 179.286 16.2965 180.333 17.3438C181.381 18.3911 181.904 19.8125 181.904 21.6078V32.1236C181.904 32.2304 181.862 32.3266 181.776 32.4121C181.712 32.4762 181.627 32.5083 181.52 32.5083H177.769C177.662 32.5083 177.566 32.4762 177.48 32.4121C177.416 32.3266 177.384 32.2304 177.384 32.1236V22.5376C177.384 21.6826 177.138 20.988 176.647 20.4537C176.176 19.9193 175.546 19.6522 174.755 19.6522C173.964 19.6522 173.323 19.9193 172.831 20.4537C172.361 20.988 172.126 21.6826 172.126 22.5376V32.1236C172.126 32.2304 172.083 32.3266 171.998 32.4121C171.934 32.4762 171.848 32.5083 171.741 32.5083H167.99C167.883 32.5083 167.787 32.4762 167.702 32.4121C167.638 32.3266 167.606 32.2304 167.606 32.1236V10.4509C167.606 10.344 167.638 10.2585 167.702 10.1944C167.787 10.1089 167.883 10.0661 167.99 10.0661H171.741C171.848 10.0661 171.934 10.1089 171.998 10.1944C172.083 10.2585 172.126 10.344 172.126 10.4509V17.5362C172.126 17.6003 172.147 17.643 172.19 17.6644C172.233 17.6858 172.265 17.6751 172.286 17.6324C173.163 16.3927 174.466 15.7729 176.198 15.7729ZM187.575 14.1699C186.848 14.1699 186.239 13.9347 185.748 13.4645C185.277 12.9729 185.042 12.3638 185.042 11.6371C185.042 10.889 185.277 10.2799 185.748 9.80967C186.218 9.33945 186.827 9.10434 187.575 9.10434C188.323 9.10434 188.932 9.33945 189.402 9.80967C189.873 10.2799 190.108 10.889 190.108 11.6371C190.108 12.3638 189.862 12.9729 189.37 13.4645C188.9 13.9347 188.302 14.1699 187.575 14.1699ZM185.651 32.5083C185.545 32.5083 185.448 32.4762 185.363 32.4121C185.299 32.3266 185.267 32.2304 185.267 32.1236V16.382C185.267 16.2751 185.299 16.1896 185.363 16.1255C185.448 16.04 185.545 15.9973 185.651 15.9973H189.402C189.509 15.9973 189.595 16.04 189.659 16.1255C189.744 16.1896 189.787 16.2751 189.787 16.382V32.1236C189.787 32.2304 189.744 32.3266 189.659 32.4121C189.595 32.4762 189.509 32.5083 189.402 32.5083H185.651ZM195.747 14.1699C195.02 14.1699 194.411 13.9347 193.919 13.4645C193.449 12.9729 193.214 12.3638 193.214 11.6371C193.214 10.889 193.449 10.2799 193.919 9.80967C194.389 9.33945 194.999 9.10434 195.747 9.10434C196.495 9.10434 197.104 9.33945 197.574 9.80967C198.044 10.2799 198.279 10.889 198.279 11.6371C198.279 12.3638 198.034 12.9729 197.542 13.4645C197.072 13.9347 196.473 14.1699 195.747 14.1699ZM193.823 32.5083C193.716 32.5083 193.62 32.4762 193.534 32.4121C193.47 32.3266 193.438 32.2304 193.438 32.1236V16.382C193.438 16.2751 193.47 16.1896 193.534 16.1255C193.62 16.04 193.716 15.9973 193.823 15.9973H197.574C197.681 15.9973 197.766 16.04 197.831 16.1255C197.916 16.1896 197.959 16.2751 197.959 16.382V32.1236C197.959 32.2304 197.916 32.3266 197.831 32.4121C197.766 32.4762 197.681 32.5083 197.574 32.5083H193.823ZM210.939 19.2674C210.939 19.3743 210.897 19.4705 210.811 19.556C210.747 19.6201 210.662 19.6522 210.555 19.6522H207.477C207.37 19.6522 207.317 19.7056 207.317 19.8125V26.6092C207.317 27.3145 207.456 27.8382 207.733 28.1802C208.033 28.5221 208.503 28.6931 209.144 28.6931H210.202C210.309 28.6931 210.394 28.7359 210.459 28.8214C210.544 28.8855 210.587 28.971 210.587 29.0779V32.1236C210.587 32.3587 210.459 32.4976 210.202 32.5404C209.304 32.5831 208.663 32.6045 208.278 32.6045C206.504 32.6045 205.179 32.3159 204.303 31.7389C203.427 31.1404 202.978 30.029 202.956 28.4046V19.8125C202.956 19.7056 202.903 19.6522 202.796 19.6522H200.969C200.862 19.6522 200.766 19.6201 200.68 19.556C200.616 19.4705 200.584 19.3743 200.584 19.2674V16.4141C200.584 16.3072 200.616 16.2217 200.68 16.1576C200.766 16.0721 200.862 16.0293 200.969 16.0293H202.796C202.903 16.0293 202.956 15.9759 202.956 15.869V12.0539C202.956 11.947 202.989 11.8615 203.053 11.7974C203.138 11.7119 203.234 11.6692 203.341 11.6692H206.932C207.039 11.6692 207.124 11.7119 207.188 11.7974C207.274 11.8615 207.317 11.947 207.317 12.0539V15.869C207.317 15.9759 207.37 16.0293 207.477 16.0293H210.555C210.662 16.0293 210.747 16.0721 210.811 16.1576C210.897 16.2217 210.939 16.3072 210.939 16.4141V19.2674ZM223.279 16.4141C223.279 16.3072 223.311 16.2217 223.375 16.1576C223.461 16.0721 223.557 16.0293 223.664 16.0293H227.415C227.522 16.0293 227.607 16.0721 227.671 16.1576C227.757 16.2217 227.799 16.3072 227.799 16.4141V32.1236C227.799 32.2304 227.757 32.3266 227.671 32.4121C227.607 32.4762 227.522 32.5083 227.415 32.5083H223.664C223.557 32.5083 223.461 32.4762 223.375 32.4121C223.311 32.3266 223.279 32.2304 223.279 32.1236V31.0335C223.279 30.9694 223.257 30.9373 223.215 30.9373C223.172 30.916 223.129 30.9374 223.087 31.0015C222.232 32.1556 220.906 32.7327 219.111 32.7327C217.487 32.7327 216.151 32.2411 215.104 31.258C214.056 30.2748 213.533 28.8962 213.533 27.1222V16.4141C213.533 16.3072 213.565 16.2217 213.629 16.1576C213.714 16.0721 213.81 16.0293 213.917 16.0293H217.636C217.743 16.0293 217.829 16.0721 217.893 16.1576C217.978 16.2217 218.021 16.3072 218.021 16.4141V26.0001C218.021 26.855 218.245 27.5497 218.694 28.084C219.164 28.6183 219.806 28.8855 220.618 28.8855C221.345 28.8855 221.943 28.6718 222.413 28.2443C222.883 27.7954 223.172 27.2184 223.279 26.513V16.4141Z" fill="url(#paint6_linear_20_1509)"/>
<defs>
<linearGradient id="paint0_linear_20_1509" x1="40.9001" y1="25.8052" x2="40.9095" y2="39.2925" gradientUnits="userSpaceOnUse">
<stop stop-color="#0964E7"/>
<stop offset="1" stop-color="#48D4FA"/>
</linearGradient>
<linearGradient id="paint1_linear_20_1509" x1="6.18723" y1="14.9423" x2="6.18723" y2="1.56667" gradientUnits="userSpaceOnUse">
<stop stop-color="#0964E7"/>
<stop offset="1" stop-color="#48D4FA"/>
</linearGradient>
<linearGradient id="paint2_linear_20_1509" x1="20.516" y1="40.1248" x2="20.516" y2="2.24548" gradientUnits="userSpaceOnUse">
<stop stop-color="#0964E7"/>
<stop offset="1" stop-color="#48D4FA"/>
</linearGradient>
<linearGradient id="paint3_linear_20_1509" x1="17.1911" y1="40.1248" x2="17.1911" y2="2.24548" gradientUnits="userSpaceOnUse">
<stop offset="0.33" stop-color="#0964E7"/>
<stop offset="1" stop-color="#48D4FA"/>
</linearGradient>
<linearGradient id="paint4_linear_20_1509" x1="48.0516" y1="15.1877" x2="48.0516" y2="1.81211" gradientUnits="userSpaceOnUse">
<stop stop-color="#0964E7"/>
<stop offset="1" stop-color="#48D4FA"/>
</linearGradient>
<linearGradient id="paint5_linear_20_1509" x1="33.1126" y1="39.279" x2="33.1126" y2="1.54537" gradientUnits="userSpaceOnUse">
<stop stop-color="#FF981B"/>
<stop offset="1" stop-color="#FC236C"/>
</linearGradient>
<linearGradient id="paint6_linear_20_1509" x1="146.053" y1="39.3592" x2="146.053" y2="1.17917" gradientUnits="userSpaceOnUse">
<stop stop-color="#0964E7"/>
<stop offset="1" stop-color="#48D4FA"/>
</linearGradient>
</defs>
</svg>
