<svg width="50" height="50" viewBox="0 0 50 50" fill="none" xmlns="http://www.w3.org/2000/svg">
<rect width="49.2277" height="49.2277" rx="24.6139" fill="white" fill-opacity="0.2"/>
<g clip-path="url(#clip0_20_1340)">
<path d="M35.8023 19.5009V26.2138C35.8023 27.892 35.2429 29.2905 34.2583 30.2751C33.285 31.2484 31.8864 31.8078 30.2082 31.8078V34.1909C30.2082 35.086 29.2125 35.623 28.4741 35.1307L23.4953 31.8078H21.1235C21.213 31.4722 21.2577 31.1254 21.2577 30.7674C21.2577 29.6262 20.8214 28.5745 20.1053 27.7801C19.6892 27.31 19.1776 26.934 18.6045 26.6774C18.0315 26.4208 17.4103 26.2895 16.7825 26.2921C15.5294 26.2921 14.3882 26.8068 13.5715 27.6459C13.4708 27.1983 13.426 26.7173 13.426 26.2138V19.5009C13.426 16.1445 15.6637 13.9069 19.0201 13.9069H30.2082C33.5647 13.9069 35.8023 16.1445 35.8023 19.5009Z" stroke="white" stroke-opacity="0.8" stroke-width="1.67822" stroke-miterlimit="10" stroke-linecap="round" stroke-linejoin="round"/>
<path d="M18.4495 30.7449H15.1154M16.7825 29.1114V32.4567M20.6983 22.9356H28.53M21.2577 30.7673C21.2577 31.1253 21.213 31.4721 21.1235 31.8078C21.0228 32.2553 20.8438 32.6916 20.6088 33.072C20.2144 33.7349 19.6541 34.2837 18.9832 34.6643C18.3123 35.0448 17.5538 35.2441 16.7825 35.2425C15.6809 35.2458 14.6185 34.8344 13.8064 34.0902C13.4708 33.7993 13.1799 33.4524 12.9561 33.072C12.5303 32.3788 12.3056 31.5809 12.3072 30.7673C12.3065 30.1794 12.4217 29.5971 12.6464 29.0538C12.871 28.5105 13.2006 28.0169 13.6164 27.6012C14.0321 27.1855 14.5257 26.8558 15.069 26.6312C15.6123 26.4066 16.1946 26.2913 16.7825 26.292C18.1027 26.292 19.2998 26.8626 20.1053 27.7801C20.8214 28.5744 21.2577 29.6261 21.2577 30.7673Z" stroke="white" stroke-opacity="0.8" stroke-width="1.67822" stroke-miterlimit="10" stroke-linecap="round" stroke-linejoin="round"/>
</g>
<defs>
<clipPath id="clip0_20_1340">
<rect width="26.8515" height="26.8515" fill="white" transform="translate(11.1882 11.1881)"/>
</clipPath>
</defs>
</svg>
