<svg width="50" height="51" viewBox="0 0 50 51" fill="none" xmlns="http://www.w3.org/2000/svg">
<rect x="0.663177" y="0.801971" width="49.2277" height="49.2277" rx="24.6139" fill="white" fill-opacity="0.2"/>
<path d="M25.4251 28.7812C26.3152 28.7812 27.1689 28.4276 27.7983 27.7982C28.4277 27.1688 28.7813 26.3151 28.7813 25.425C28.7813 24.5348 28.4277 23.6812 27.7983 23.0517C27.1689 22.4223 26.3152 22.0687 25.4251 22.0687C24.535 22.0687 23.6813 22.4223 23.0519 23.0517C22.4225 23.6812 22.0688 24.5348 22.0688 25.425C22.0688 26.3151 22.4225 27.1688 23.0519 27.7982C23.6813 28.4276 24.535 28.7812 25.4251 28.7812Z" stroke="white" stroke-opacity="0.8" stroke-width="1.5" stroke-miterlimit="10" stroke-linecap="round" stroke-linejoin="round"/>
<path d="M14.2376 26.4095V24.4405C14.2376 23.277 15.1885 22.3148 16.3632 22.3148C18.3882 22.3148 19.216 20.8828 18.198 19.1264C17.6162 18.1195 17.963 16.8106 18.9811 16.2288L20.9165 15.1213C21.8003 14.5955 22.9415 14.9087 23.4673 15.7925L23.5903 16.0051C24.5972 17.7615 26.253 17.7615 27.271 16.0051L27.3941 15.7925C27.9199 14.9087 29.061 14.5955 29.9448 15.1213L31.8803 16.2288C32.8983 16.8106 33.2452 18.1195 32.6634 19.1264C31.6453 20.8828 32.4732 22.3148 34.4982 22.3148C35.6617 22.3148 36.6238 23.2658 36.6238 24.4405V26.4095C36.6238 27.573 35.6728 28.5351 34.4982 28.5351C32.4732 28.5351 31.6453 29.9671 32.6634 31.7235C33.2452 32.7416 32.8983 34.0393 31.8803 34.6211L29.9448 35.7287C29.061 36.2545 27.9199 35.9412 27.3941 35.0574L27.271 34.8449C26.2642 33.0884 24.6084 33.0884 23.5903 34.8449L23.4673 35.0574C22.9415 35.9412 21.8003 36.2545 20.9165 35.7287L18.9811 34.6211C18.4934 34.3403 18.1371 33.8775 17.9903 33.3343C17.8434 32.791 17.9181 32.2118 18.198 31.7235C19.216 29.9671 18.3882 28.5351 16.3632 28.5351C15.1885 28.5351 14.2376 27.573 14.2376 26.4095Z" stroke="white" stroke-opacity="0.8" stroke-width="1.5" stroke-miterlimit="10" stroke-linecap="round" stroke-linejoin="round"/>
</svg>
