<svg width="54" height="39" viewBox="0 0 54 39" fill="none" xmlns="http://www.w3.org/2000/svg">
<path d="M38.1392 24.8952C38.1711 24.8719 38.2081 24.8563 38.2471 24.8499C38.2862 24.8434 38.3261 24.8462 38.3639 24.858C38.4016 24.8699 38.4361 24.8904 38.4644 24.918C38.4928 24.9456 38.5142 24.9795 38.5271 25.0169C38.7061 25.5402 39.1124 26.573 39.6976 27.2363C41.3433 29.1 43.4709 29.4076 45.2497 29.0243C45.9906 28.8621 46.6851 28.5341 47.2809 28.0649C47.4034 27.977 47.5461 27.9214 47.6957 27.9033C47.8454 27.8853 47.9972 27.9053 48.137 27.9616C48.5502 28.1383 48.6282 28.377 48.7292 28.7052C48.9826 29.6485 49.0749 30.6278 49.0023 31.6018C48.8977 32.957 48.4864 34.2708 47.7997 35.4439C47.4127 36.1099 46.843 36.6511 46.158 37.0033C45.473 37.3556 44.7014 37.5042 43.9346 37.4315C42.7098 37.3895 41.4836 37.4194 40.2623 37.521C33.8679 38.0696 33.9115 39.006 32.5826 37.3237C31.9101 36.4698 36.0001 35.3429 36.1906 34.2756L37.7651 25.3497C37.7556 25.302 37.7601 25.2526 37.778 25.2074C37.7959 25.1622 37.8265 25.1231 37.8661 25.0949L38.1392 24.8952Z" fill="url(#paint0_linear_20_1510)"/>
<path opacity="0.532546" d="M36.0111 24.3485L36.7455 23.8321C36.7455 23.8321 37.8793 26.0653 38.7354 27.0247C40.3765 27.6926 41.0903 28.6795 42.1782 28.893C41.7192 30.1599 40.6955 31.7689 41.0742 34.1352C41.2601 35.4182 43.0481 36.8894 43.7619 37.4196C43.7803 37.4334 42.0405 37.4334 41.9762 37.4334C40.4614 37.4127 34.7785 38.2068 35.0471 38.1678C34.8703 38.0668 37.0554 36.9032 36.8832 36.7907L36.0111 24.3485Z" fill="#0D2B5E"/>
<path opacity="0.177363" d="M37.9026 25.0926L38.1803 24.8929C38.2125 24.87 38.2496 24.855 38.2886 24.849C38.3277 24.8429 38.3676 24.846 38.4052 24.858C38.4428 24.8701 38.4771 24.8907 38.5054 24.9182C38.5337 24.9458 38.5552 24.9795 38.5682 25.0168C38.7472 25.5401 39.1512 26.5752 39.7364 27.2386C41.3798 29.1022 43.5097 29.4098 45.2885 29.0288C46.0296 28.8666 46.7247 28.5395 47.322 28.0717C47.4574 27.9762 47.616 27.9191 47.7811 27.9065C47.0546 29.5131 45.9351 30.9109 44.5259 31.9707C43.1167 33.0305 41.4632 33.7182 39.7181 33.9703C39.585 33.9887 36.0458 34.4064 36.0205 34.2733L37.7947 25.3473C37.7865 25.299 37.7923 25.2493 37.8115 25.2042C37.8306 25.159 37.8622 25.1203 37.9026 25.0926Z" fill="#89E2FF"/>
<path d="M11.2764 13.8944C11.2764 13.8944 10.7852 12.1959 9.92682 11.2365C8.18477 9.29021 5.92631 8.96889 4.03966 9.36825C3.25539 9.53492 2.51875 9.87617 1.88448 10.3667C1.75411 10.4584 1.6029 10.516 1.44458 10.5345C1.28626 10.5529 1.12584 10.5315 0.977886 10.4722C0.539505 10.2886 0.456879 10.0407 0.349005 9.69646C0.0815779 8.71342 -0.0146941 7.69169 0.0644023 6.676C0.176013 5.25985 0.612702 3.88852 1.34053 2.6686C1.83445 1.85186 2.58269 1.21973 3.47046 0.869174C4.09834 0.632652 4.77131 0.540099 5.43973 0.598342C6.79159 0.697035 9.50451 0.584572 9.50451 0.584572L12.0131 13.3802L11.2764 13.8944Z" fill="url(#paint1_linear_20_1510)"/>
<path opacity="0.177363" d="M0.57843 10.1967C0.686032 10.3209 0.823463 10.4157 0.977792 10.4721C1.12575 10.5314 1.28617 10.5528 1.44449 10.5344C1.60281 10.5159 1.75402 10.4582 1.88439 10.3665C2.51865 9.87605 3.25529 9.53479 4.03957 9.36812C5.92621 8.96876 8.18468 9.29009 9.92673 11.2364C10.7851 12.1935 11.2763 13.8942 11.2763 13.8942L12.0131 13.3778L10.6566 6.45783C8.79763 6.17796 6.89805 6.37413 5.13551 7.02801C3.37297 7.68188 1.80507 8.7721 0.57843 10.1967Z" fill="#89E2FF"/>
<path opacity="0.532546" d="M5.63223 0.60738C6.42637 1.27757 7.19296 2.46878 7.5074 4.57117C7.83561 6.76078 7.79889 8.40872 7.61757 9.62058C8.50589 9.96909 9.29769 10.5255 9.92653 11.2433C10.7849 12.2004 11.2761 13.9011 11.2761 13.9011L12.0129 13.3847L9.50422 0.58902C9.50422 0.58902 7.0323 0.690006 5.63223 0.614265V0.60738Z" fill="#0D2B5E"/>
<path d="M5.29248 0.582189C5.29248 0.582189 8.53558 0.687767 9.2425 4.09612C9.94942 7.50447 16.011 36.6671 16.1579 37.3763C16.2887 38.0236 16.8304 38.2806 17.4248 38.2806H31.7514L35.1276 35.1454C34.2095 30.7616 28.9077 5.17486 28.6254 3.81381C28.3899 2.88979 27.8536 2.07042 27.101 1.48488C26.3484 0.89934 25.4223 0.580947 24.4688 0.579895L5.29248 0.582189Z" fill="url(#paint2_linear_20_1510)"/>
<path d="M5.29248 0.582189C5.29248 0.582189 8.53558 0.687767 9.2425 4.09612C9.94942 7.50447 16.011 36.6671 16.1579 37.3763C16.2887 38.0236 16.8304 38.2806 17.4248 38.2806H28.5175C28.5749 37.4406 28.6047 36.5983 28.6116 35.7559C28.6081 28.7837 26.876 21.9212 23.5703 15.7825C20.2646 9.64375 15.4885 4.4204 9.6694 0.579895L5.29248 0.582189Z" fill="url(#paint3_linear_20_1510)"/>
<path opacity="0.532546" d="M15.7403 35.3657C15.7908 35.5952 16.1489 37.3327 16.158 37.374C16.2889 38.0212 16.8305 38.2783 17.425 38.2783H29.3026C31.0974 35.7054 32.5595 32.0216 33.6634 28.0854C31.7929 19.0745 28.8435 4.86496 28.6255 3.81146C28.4127 2.93293 27.9177 2.14844 27.2163 1.57825C26.3739 1.74809 24.3748 2.49632 23.8125 5.95058C23.1056 10.3482 18.6208 29.0516 17.4342 33.1279C17.0738 34.3742 16.4495 35.0742 15.7403 35.3657Z" fill="#1A0539"/>
<path d="M42.679 13.8896C42.679 13.8896 43.1724 12.1912 44.0308 11.2341C45.7729 9.28778 48.0314 8.96875 49.918 9.36811C50.7021 9.5365 51.4386 9.87845 52.0732 10.3688C52.2044 10.4635 52.3576 10.523 52.5182 10.5419C52.6789 10.5608 52.8417 10.5383 52.9913 10.4767C53.4296 10.2908 53.5123 10.0429 53.6178 9.70091C53.8834 8.71598 53.9773 7.69267 53.8956 6.67585C53.7847 5.25915 53.3489 3.88707 52.6217 2.66616C52.1266 1.8499 51.3789 1.21735 50.4918 0.864441C49.8637 0.628752 49.1909 0.536225 48.5225 0.593609C47.173 0.690007 44.4577 0.577543 44.4577 0.577543L41.933 13.3709L42.679 13.8896Z" fill="url(#paint4_linear_20_1510)"/>
<path opacity="0.177363" d="M41.9467 13.3776L42.6835 13.8941C42.6835 13.8941 43.1747 12.1933 44.0331 11.2362C45.7751 9.28991 48.0336 8.96859 49.9202 9.36795C50.7045 9.53462 51.4411 9.87587 52.0754 10.3664C52.2167 10.4647 52.3813 10.524 52.5528 10.5385C51.7533 8.81522 50.5256 7.3256 48.9866 6.2118C47.4477 5.09799 45.649 4.39718 43.7622 4.17624L41.9467 13.3776Z" fill="#89E2FF"/>
<path opacity="0.532546" d="M41.9467 13.3777L42.6835 13.8941C42.6835 13.8941 43.1747 12.1934 44.0331 11.2363C44.8392 10.3093 45.9156 9.65837 47.1109 9.37491C46.4254 7.54475 46.2115 5.57149 46.4889 3.63695C46.7299 2.13589 47.3795 1.20634 48.0818 0.627957C47.0558 0.666976 45.6305 0.627956 44.9098 0.6073C44.7308 0.708288 44.5564 0.820753 44.3865 0.940103L41.9467 13.3777Z" fill="#0D2B5E"/>
<path d="M48.667 0.581909C48.667 0.581909 45.4239 0.687487 44.717 4.09584C44.0101 7.50419 38.7679 32.8408 38.3387 34.8628C38.1484 35.8337 37.6241 36.7074 36.8568 37.3321C36.0896 37.9568 35.1278 38.2931 34.1385 38.2826H17.2643C17.2643 38.2826 18.1824 38.2505 18.3522 37.4587C18.522 36.6668 25.0289 5.27786 25.3319 3.81583C25.5681 2.89181 26.105 2.07261 26.8579 1.48715C27.6108 0.901699 28.537 0.583242 29.4907 0.581909H48.667Z" fill="url(#paint5_linear_20_1510)"/>
<path d="M27.6574 29.1045C27.7565 28.623 27.996 28.1816 28.3459 27.8363C28.6957 27.4909 29.1401 27.257 29.6228 27.1642C30.1056 27.0713 30.605 27.1237 31.058 27.3147C31.5109 27.5057 31.8971 27.8267 32.1676 28.2372C32.4382 28.6477 32.5809 29.1291 32.5778 29.6207C32.5748 30.1123 32.426 30.5919 32.1503 30.9989C31.8747 31.406 31.4845 31.7221 31.0292 31.9074C30.5739 32.0928 30.0738 32.1389 29.5923 32.04C29.2725 31.9744 28.9687 31.8463 28.6984 31.6633C28.4281 31.4802 28.1964 31.2457 28.0168 30.9731C27.8371 30.7005 27.7129 30.3951 27.6512 30.0745C27.5896 29.7539 27.5917 29.4243 27.6574 29.1045Z" fill="white"/>
<path d="M31.7375 9.23948C31.8383 8.75783 32.0796 8.31687 32.431 7.97238C32.7824 7.62788 33.228 7.39532 33.7116 7.30411C34.1951 7.21289 34.6949 7.26711 35.1476 7.45992C35.6003 7.65272 35.9857 7.97545 36.2551 8.38729C36.5244 8.79913 36.6655 9.28159 36.6606 9.77364C36.6558 10.2657 36.5051 10.7453 36.2276 11.1517C35.9502 11.5581 35.5585 11.8731 35.102 12.0569C34.6456 12.2407 34.1448 12.285 33.6632 12.1842C33.0173 12.0491 32.4516 11.6629 32.0905 11.1106C31.7294 10.5584 31.6024 9.88533 31.7375 9.23948Z" fill="white"/>
<path opacity="0.401048" d="M17.2643 38.2829H33.6749C33.9643 35.6631 34.1175 33.03 34.1339 30.3943C34.1162 20.2296 32.054 10.1723 28.07 0.820862C27.4004 1.0524 26.7985 1.44602 26.318 1.96663C25.8374 2.48724 25.4931 3.11866 25.3158 3.80461C25.0128 5.26664 18.4991 36.6533 18.3361 37.4475C18.1732 38.2416 17.2643 38.2829 17.2643 38.2829Z" fill="#FEAE53"/>
<path d="M29.6973 19.1734C29.7963 18.6919 30.0358 18.2505 30.3857 17.9051C30.7355 17.5598 31.1799 17.3259 31.6626 17.233C32.1454 17.1402 32.6448 17.1926 33.0978 17.3836C33.5507 17.5746 33.9369 17.8956 34.2074 18.3061C34.478 18.7165 34.6207 19.198 34.6176 19.6896C34.6146 20.1812 34.4658 20.6608 34.1901 21.0678C33.9145 21.4749 33.5243 21.791 33.069 21.9763C32.6137 22.1616 32.1136 22.2078 31.6321 22.1089C31.3121 22.0435 31.0082 21.9157 30.7377 21.7327C30.4672 21.5497 30.2355 21.3151 30.0558 21.0425C29.8761 20.7698 29.7519 20.4644 29.6904 20.1436C29.6288 19.8229 29.6312 19.4932 29.6973 19.1734Z" fill="white"/>
<defs>
<linearGradient id="paint0_linear_20_1510" x1="40.9001" y1="24.8052" x2="40.9095" y2="38.2925" gradientUnits="userSpaceOnUse">
<stop stop-color="#0964E7"/>
<stop offset="1" stop-color="#48D4FA"/>
</linearGradient>
<linearGradient id="paint1_linear_20_1510" x1="6.18723" y1="13.9423" x2="6.18723" y2="0.566669" gradientUnits="userSpaceOnUse">
<stop stop-color="#0964E7"/>
<stop offset="1" stop-color="#48D4FA"/>
</linearGradient>
<linearGradient id="paint2_linear_20_1510" x1="20.516" y1="39.1248" x2="20.516" y2="1.24548" gradientUnits="userSpaceOnUse">
<stop stop-color="#0964E7"/>
<stop offset="1" stop-color="#48D4FA"/>
</linearGradient>
<linearGradient id="paint3_linear_20_1510" x1="17.1911" y1="39.1248" x2="17.1911" y2="1.24548" gradientUnits="userSpaceOnUse">
<stop offset="0.33" stop-color="#0964E7"/>
<stop offset="1" stop-color="#48D4FA"/>
</linearGradient>
<linearGradient id="paint4_linear_20_1510" x1="48.0516" y1="14.1877" x2="48.0516" y2="0.812112" gradientUnits="userSpaceOnUse">
<stop stop-color="#0964E7"/>
<stop offset="1" stop-color="#48D4FA"/>
</linearGradient>
<linearGradient id="paint5_linear_20_1510" x1="33.1126" y1="38.279" x2="33.1126" y2="0.54537" gradientUnits="userSpaceOnUse">
<stop stop-color="#FF981B"/>
<stop offset="1" stop-color="#FC236C"/>
</linearGradient>
</defs>
</svg>
